<svg width="104" height="202" viewBox="0 0 104 202" fill="none" xmlns="http://www.w3.org/2000/svg">
<line x1="88.4645" y1="0.185163" x2="8.46445" y2="200.852" stroke="#007AB9"/>
<path d="M55.0629 87.1821L73.4174 130.668C73.8767 131.757 74.5422 132.745 75.3774 133.581L75.6346 133.838C76.1597 134.363 76.766 134.8 77.4302 135.132V135.132C77.7897 135.312 78.1641 135.46 78.5493 135.574L79.2666 135.788H61.7685V135.788C61.7685 134.936 62.4593 134.245 63.3115 134.245H64.4862C64.729 134.245 64.9684 134.188 65.1855 134.08V134.08C65.8814 133.732 66.2156 132.925 65.9695 132.187L65.6269 131.159L51.7395 95.6688L55.0629 87.1821Z" fill="#007AB9"/>
<circle cx="52" cy="111" r="51.5" stroke="#007AB9"/>
</svg>
